<?xml version="1.0" encoding="UTF-8" standalone="no"?>
<!DOCTYPE svg PUBLIC "-//W3C//DTD SVG 1.1//EN"
 "http://www.w3.org/Graphics/SVG/1.1/DTD/svg11.dtd">
<!-- Generated by graphviz version 2.43.0 (0)
 -->
<!-- Title: G Pages: 1 -->
<svg width="930pt" height="148pt"
 viewBox="0.00 0.00 930.20 148.20" xmlns="http://www.w3.org/2000/svg" xmlns:xlink="http://www.w3.org/1999/xlink">
<g id="graph0" class="graph" transform="scale(1 1) rotate(0) translate(21.6 126.6)">
<title>G</title>
<polygon fill="#111111" stroke="transparent" points="-21.6,21.6 -21.6,-126.6 908.6,-126.6 908.6,21.6 -21.6,21.6"/>
<!-- src/components/pacific&#45;layouts/pacific&#45;body/PacificContainerWrapper.tsx -->
<g id="node1" class="node">
<title>src/components/pacific&#45;layouts/pacific&#45;body/PacificContainerWrapper.tsx</title>
<path fill="none" stroke="#ff6c60" d="M444.33,-23C444.33,-23 7.67,-23 7.67,-23 3.83,-23 0,-19.17 0,-15.33 0,-15.33 0,-7.67 0,-7.67 0,-3.83 3.83,0 7.67,0 7.67,0 444.33,0 444.33,0 448.17,0 452,-3.83 452,-7.67 452,-7.67 452,-15.33 452,-15.33 452,-19.17 448.17,-23 444.33,-23"/>
<text text-anchor="middle" x="226" y="-7.8" font-family="Arial" font-size="14.00" fill="#ff6c60">src/components/pacific&#45;layouts/pacific&#45;body/PacificContainerWrapper.tsx</text>
</g>
<!-- src/components/pacific&#45;layouts/pacific&#45;body/PageContainers.tsx -->
<g id="node2" class="node">
<title>src/components/pacific&#45;layouts/pacific&#45;body/PageContainers.tsx</title>
<path fill="none" stroke="#ff6c60" d="M879.33,-23C879.33,-23 495.67,-23 495.67,-23 491.83,-23 488,-19.17 488,-15.33 488,-15.33 488,-7.67 488,-7.67 488,-3.83 491.83,0 495.67,0 495.67,0 879.33,0 879.33,0 883.17,0 887,-3.83 887,-7.67 887,-7.67 887,-15.33 887,-15.33 887,-19.17 883.17,-23 879.33,-23"/>
<text text-anchor="middle" x="687.5" y="-7.8" font-family="Arial" font-size="14.00" fill="#ff6c60">src/components/pacific&#45;layouts/pacific&#45;body/PageContainers.tsx</text>
</g>
<!-- src/components/pacific&#45;layouts/pacific&#45;body/PacificContainerWrapper.tsx&#45;&gt;src/components/pacific&#45;layouts/pacific&#45;body/PageContainers.tsx -->
<g id="edge1" class="edge">
<title>src/components/pacific&#45;layouts/pacific&#45;body/PacificContainerWrapper.tsx&#45;&gt;src/components/pacific&#45;layouts/pacific&#45;body/PageContainers.tsx</title>
<path fill="none" stroke="#757575" d="M452.04,-4.75C460.62,-4.75 469.21,-4.75 477.76,-4.78"/>
<polygon fill="#757575" stroke="#757575" points="477.76,-8.28 487.77,-4.81 477.78,-1.28 477.76,-8.28"/>
</g>
<!-- src/components/pacific&#45;layouts/pacific&#45;body/PageContainers.tsx&#45;&gt;src/components/pacific&#45;layouts/pacific&#45;body/PacificContainerWrapper.tsx -->
<g id="edge2" class="edge">
<title>src/components/pacific&#45;layouts/pacific&#45;body/PageContainers.tsx&#45;&gt;src/components/pacific&#45;layouts/pacific&#45;body/PacificContainerWrapper.tsx</title>
<path fill="none" stroke="#757575" d="M487.77,-18.19C479.26,-18.23 470.69,-18.24 462.11,-18.25"/>
<polygon fill="#757575" stroke="#757575" points="462.04,-14.75 452.04,-18.25 462.04,-21.75 462.04,-14.75"/>
</g>
<!-- src/models/Product.model.ts -->
<g id="node3" class="node">
<title>src/models/Product.model.ts</title>
<path fill="none" stroke="#ff6c60" d="M312.33,-84C312.33,-84 139.67,-84 139.67,-84 135.83,-84 132,-80.17 132,-76.33 132,-76.33 132,-68.67 132,-68.67 132,-64.83 135.83,-61 139.67,-61 139.67,-61 312.33,-61 312.33,-61 316.17,-61 320,-64.83 320,-68.67 320,-68.67 320,-76.33 320,-76.33 320,-80.17 316.17,-84 312.33,-84"/>
<text text-anchor="middle" x="226" y="-68.8" font-family="Arial" font-size="14.00" fill="#ff6c60">src/models/Product.model.ts</text>
</g>
<!-- src/models/Review.model.ts -->
<g id="node4" class="node">
<title>src/models/Review.model.ts</title>
<path fill="none" stroke="#ff6c60" d="M772.33,-105C772.33,-105 602.67,-105 602.67,-105 598.83,-105 595,-101.17 595,-97.33 595,-97.33 595,-89.67 595,-89.67 595,-85.83 598.83,-82 602.67,-82 602.67,-82 772.33,-82 772.33,-82 776.17,-82 780,-85.83 780,-89.67 780,-89.67 780,-97.33 780,-97.33 780,-101.17 776.17,-105 772.33,-105"/>
<text text-anchor="middle" x="687.5" y="-89.8" font-family="Arial" font-size="14.00" fill="#ff6c60">src/models/Review.model.ts</text>
</g>
<!-- src/models/Product.model.ts&#45;&gt;src/models/Review.model.ts -->
<g id="edge3" class="edge">
<title>src/models/Product.model.ts&#45;&gt;src/models/Review.model.ts</title>
<path fill="none" stroke="#757575" d="M320.26,-71.21C396.96,-73.18 505.49,-78.08 584.48,-83.12"/>
<polygon fill="#757575" stroke="#757575" points="584.73,-86.64 594.94,-83.8 585.19,-79.66 584.73,-86.64"/>
</g>
<!-- src/models/Shop.model.ts -->
<g id="node5" class="node">
<title>src/models/Shop.model.ts</title>
<path fill="none" stroke="#ff6c60" d="M766.33,-64C766.33,-64 608.67,-64 608.67,-64 604.83,-64 601,-60.17 601,-56.33 601,-56.33 601,-48.67 601,-48.67 601,-44.83 604.83,-41 608.67,-41 608.67,-41 766.33,-41 766.33,-41 770.17,-41 774,-44.83 774,-48.67 774,-48.67 774,-56.33 774,-56.33 774,-60.17 770.17,-64 766.33,-64"/>
<text text-anchor="middle" x="687.5" y="-48.8" font-family="Arial" font-size="14.00" fill="#ff6c60">src/models/Shop.model.ts</text>
</g>
<!-- src/models/Product.model.ts&#45;&gt;src/models/Shop.model.ts -->
<g id="edge4" class="edge">
<title>src/models/Product.model.ts&#45;&gt;src/models/Shop.model.ts</title>
<path fill="none" stroke="#757575" d="M320.26,-62.89C399,-57.88 511.29,-52.98 590.73,-51.06"/>
<polygon fill="#757575" stroke="#757575" points="590.82,-54.56 600.74,-50.84 590.66,-47.57 590.82,-54.56"/>
</g>
<!-- src/models/Review.model.ts&#45;&gt;src/models/Product.model.ts -->
<g id="edge5" class="edge">
<title>src/models/Review.model.ts&#45;&gt;src/models/Product.model.ts</title>
<path fill="none" stroke="#757575" d="M594.94,-94.84C518.56,-92.91 409.77,-88.01 330.29,-82.96"/>
<polygon fill="#757575" stroke="#757575" points="330.47,-79.47 320.26,-82.32 330.02,-86.45 330.47,-79.47"/>
</g>
<!-- src/models/Shop.model.ts&#45;&gt;src/models/Product.model.ts -->
<g id="edge6" class="edge">
<title>src/models/Shop.model.ts&#45;&gt;src/models/Product.model.ts</title>
<path fill="none" stroke="#757575" d="M600.74,-61.63C524.23,-66.64 412.03,-71.64 330.55,-73.74"/>
<polygon fill="#757575" stroke="#757575" points="330.17,-70.25 320.26,-73.99 330.35,-77.25 330.17,-70.25"/>
</g>
</g>
</svg>
